<?xml version="1.0" encoding="UTF-8" standalone="no"?><svg xmlns="http://www.w3.org/2000/svg" xmlns:xlink="http://www.w3.org/1999/xlink" contentScriptType="application/ecmascript" contentStyleType="text/css" height="507px" preserveAspectRatio="none" style="width:675px;height:507px;" version="1.1" viewBox="0 0 675 507" width="675px" zoomAndPan="magnify"><defs><filter height="300%" id="fgxoj5a" width="300%" x="-1" y="-1"><feGaussianBlur result="blurOut" stdDeviation="2.0"/><feColorMatrix in="blurOut" result="blurOut2" type="matrix" values="0 0 0 0 0 0 0 0 0 0 0 0 0 0 0 0 0 0 .4 0"/><feOffset dx="4.0" dy="4.0" in="blurOut2" result="blurOut3"/><feBlend in="SourceGraphic" in2="blurOut3" mode="normal"/></filter></defs><g><!--cluster ##2--><path d="M91,31 C91,28 93,26 96,26 C99,26 101,28 101,31 C101,28 103,26 106,26 C109,26 111,28 111,31 C111,28 113,26 116,26 C119,26 121,28 121,31 C121,28 123,26 126,26 C129,26 131,28 131,31 C131,28 133,26 136,26 C139,26 141,28 141,31 C141,28 143,26 146,26 C149,26 151,28 151,31 C151,28 153,26 156,26 C159,26 161,28 161,31 C161,28 163,26 166,26 C169,26 171,28 171,31 C174,31 176,33 176,36 C176,39 174,41 171,41 C174,41 176,43 176,46 C176,49 174,51 171,51 C174,51 176,53 176,56 C176,59 174,61 171,61 C174,61 176,63 176,66 C176,69 174,71 171,71 C174,71 176,73 176,76 C176,79 174,81 171,81 C171,84 168,86 166,86 C163,86 161,84 161,81 C161,84 158,86 156,86 C153,86 151,84 151,81 C151,84 148,86 146,86 C143,86 141,84 141,81 C141,84 138,86 136,86 C133,86 131,84 131,81 C131,84 128,86 126,86 C123,86 121,84 121,81 C121,84 118,86 116,86 C113,86 111,84 111,81 C111,84 108,86 106,86 C103,86 101,84 101,81 C101,84 98,86 96,86 C93,86 91,84 91,81 C88,81 86,79 86,76 C86,73 88,71 91,71 C88,71 86,69 86,66 C86,63 88,61 91,61 C88,61 86,59 86,56 C86,53 88,51 91,51 C88,51 86,49 86,46 C86,43 88,41 91,41 C88,41 86,39 86,36 C86,33 88,31 91,31 " fill="#FFFFFF" filter="url(#fgxoj5a)" style="stroke: #000000; stroke-width: 2.0;"/><!--cluster Ec2--><polygon fill="#FFFFFF" filter="url(#fgxoj5a)" points="85,126,95,116,316,116,316,294,306,304,85,304,85,126" style="stroke: #000000; stroke-width: 2.0;"/><line style="stroke: #000000; stroke-width: 2.0;" x1="306" x2="315" y1="126" y2="117"/><line style="stroke: #000000; stroke-width: 2.0;" x1="85" x2="306" y1="126" y2="126"/><line style="stroke: #000000; stroke-width: 2.0;" x1="306" x2="306" y1="126" y2="304"/><text fill="#000000" font-family="sans-serif" font-size="14" font-weight="bold" lengthAdjust="spacingAndGlyphs" textLength="28" x="182.5" y="141.9951">Ec2</text><!--cluster apps-supervisord--><polygon fill="#FFFFFF" filter="url(#fgxoj5a)" points="340,217,483,217,490,239.2969,668,239.2969,668,304,340,304,340,217" style="stroke: #000000; stroke-width: 2.0;"/><line style="stroke: #000000; stroke-width: 2.0;" x1="340" x2="490" y1="239.2969" y2="239.2969"/><text fill="#000000" font-family="sans-serif" font-size="14" font-weight="bold" lengthAdjust="spacingAndGlyphs" textLength="137" x="344" y="231.9951">apps-supervisord</text><!--cluster RabbitMQ--><path d="M22,338 C22,328 69,328 69,328 C69,328 116,328 116,338 L116,420 C116,430 69,430 69,430 C69,430 22,430 22,420 L22,338 " fill="#FFFFFF" filter="url(#fgxoj5a)" style="stroke: #000000; stroke-width: 2.0;"/><path d="M22,338 C22,348 69,348 69,348 C69,348 116,348 116,338 " fill="none" style="stroke: #000000; stroke-width: 2.0;"/><text fill="#000000" font-family="sans-serif" font-size="14" font-weight="bold" lengthAdjust="spacingAndGlyphs" textLength="78" x="30" y="361.9951">RabbitMQ</text><!--cluster PostgreSQL--><path d="M140,338 C140,328 200,328 200,328 C200,328 260,328 260,338 L260,420 C260,430 200,430 200,430 C200,430 140,430 140,420 L140,338 " fill="#FFFFFF" filter="url(#fgxoj5a)" style="stroke: #000000; stroke-width: 2.0;"/><path d="M140,338 C140,348 200,348 200,348 C200,348 260,348 260,338 " fill="none" style="stroke: #000000; stroke-width: 2.0;"/><text fill="#000000" font-family="sans-serif" font-size="14" font-weight="bold" lengthAdjust="spacingAndGlyphs" textLength="93" x="153.5" y="361.9951">PostgreSQL</text><!--entity AWS--><rect fill="#FEFECE" filter="url(#fgxoj5a)" height="36.2969" style="stroke: #A80036; stroke-width: 1.5;" width="53" x="104.5" y="40"/><rect fill="#FEFECE" height="5" style="stroke: #A80036; stroke-width: 1.5;" width="10" x="99.5" y="45"/><rect fill="#FEFECE" height="5" style="stroke: #A80036; stroke-width: 1.5;" width="10" x="99.5" y="66.2969"/><text fill="#000000" font-family="sans-serif" font-size="14" lengthAdjust="spacingAndGlyphs" textLength="33" x="114.5" y="62.9951">AWS</text><!--entity Nginx--><rect fill="#FEFECE" filter="url(#fgxoj5a)" height="36.2969" style="stroke: #A80036; stroke-width: 1.5;" width="60" x="101" y="156"/><rect fill="#FEFECE" height="5" style="stroke: #A80036; stroke-width: 1.5;" width="10" x="96" y="161"/><rect fill="#FEFECE" height="5" style="stroke: #A80036; stroke-width: 1.5;" width="10" x="96" y="182.2969"/><text fill="#000000" font-family="sans-serif" font-size="14" lengthAdjust="spacingAndGlyphs" textLength="40" x="111" y="178.9951">Nginx</text><!--entity Django--><rect fill="#FEFECE" filter="url(#fgxoj5a)" height="36.2969" style="stroke: #A80036; stroke-width: 1.5;" width="71" x="101.5" y="252"/><rect fill="#FEFECE" height="5" style="stroke: #A80036; stroke-width: 1.5;" width="10" x="96.5" y="257"/><rect fill="#FEFECE" height="5" style="stroke: #A80036; stroke-width: 1.5;" width="10" x="96.5" y="278.2969"/><text fill="#000000" font-family="sans-serif" font-size="14" lengthAdjust="spacingAndGlyphs" textLength="51" x="111.5" y="274.9951">Django</text><!--entity supervisord--><rect fill="#FEFECE" filter="url(#fgxoj5a)" height="36.2969" style="stroke: #A80036; stroke-width: 1.5;" width="103" x="196.5" y="156"/><rect fill="#FEFECE" height="5" style="stroke: #A80036; stroke-width: 1.5;" width="10" x="191.5" y="161"/><rect fill="#FEFECE" height="5" style="stroke: #A80036; stroke-width: 1.5;" width="10" x="191.5" y="182.2969"/><text fill="#000000" font-family="sans-serif" font-size="14" lengthAdjust="spacingAndGlyphs" textLength="83" x="206.5" y="178.9951">supervisord</text><!--entity celery--><rect fill="#FEFECE" filter="url(#fgxoj5a)" height="36.2969" style="stroke: #A80036; stroke-width: 1.5;" width="64" x="588" y="252"/><rect fill="#FEFECE" height="5" style="stroke: #A80036; stroke-width: 1.5;" width="10" x="583" y="257"/><rect fill="#FEFECE" height="5" style="stroke: #A80036; stroke-width: 1.5;" width="10" x="583" y="278.2969"/><text fill="#000000" font-family="sans-serif" font-size="14" lengthAdjust="spacingAndGlyphs" textLength="44" x="598" y="274.9951">celery</text><!--entity celery-beat--><rect fill="#FEFECE" filter="url(#fgxoj5a)" height="36.2969" style="stroke: #A80036; stroke-width: 1.5;" width="101" x="451.5" y="252"/><rect fill="#FEFECE" height="5" style="stroke: #A80036; stroke-width: 1.5;" width="10" x="446.5" y="257"/><rect fill="#FEFECE" height="5" style="stroke: #A80036; stroke-width: 1.5;" width="10" x="446.5" y="278.2969"/><text fill="#000000" font-family="sans-serif" font-size="14" lengthAdjust="spacingAndGlyphs" textLength="81" x="461.5" y="274.9951">celery-beat</text><!--entity uwsgi--><rect fill="#FEFECE" filter="url(#fgxoj5a)" height="36.2969" style="stroke: #A80036; stroke-width: 1.5;" width="60" x="356" y="252"/><rect fill="#FEFECE" height="5" style="stroke: #A80036; stroke-width: 1.5;" width="10" x="351" y="257"/><rect fill="#FEFECE" height="5" style="stroke: #A80036; stroke-width: 1.5;" width="10" x="351" y="278.2969"/><text fill="#000000" font-family="sans-serif" font-size="14" lengthAdjust="spacingAndGlyphs" textLength="40" x="366" y="274.9951">uwsgi</text><!--entity Pika--><rect fill="#FEFECE" filter="url(#fgxoj5a)" height="36.2969" style="stroke: #A80036; stroke-width: 1.5;" width="49" x="50.5" y="378"/><rect fill="#FEFECE" height="5" style="stroke: #A80036; stroke-width: 1.5;" width="10" x="45.5" y="383"/><rect fill="#FEFECE" height="5" style="stroke: #A80036; stroke-width: 1.5;" width="10" x="45.5" y="404.2969"/><text fill="#000000" font-family="sans-serif" font-size="14" lengthAdjust="spacingAndGlyphs" textLength="29" x="60.5" y="400.9951">Pika</text><!--entity psycopg2--><rect fill="#FEFECE" filter="url(#fgxoj5a)" height="36.2969" style="stroke: #A80036; stroke-width: 1.5;" width="88" x="156" y="378"/><rect fill="#FEFECE" height="5" style="stroke: #A80036; stroke-width: 1.5;" width="10" x="151" y="383"/><rect fill="#FEFECE" height="5" style="stroke: #A80036; stroke-width: 1.5;" width="10" x="151" y="404.2969"/><text fill="#000000" font-family="sans-serif" font-size="14" lengthAdjust="spacingAndGlyphs" textLength="68" x="166" y="400.9951">psycopg2</text><!--entity message--><path d="M38,474 L112,474 C117,474 117,487.1484 117,487.1484 C117,487.1484 117,500.2969 112,500.2969 L38,500.2969 C33,500.2969 33,487.1484 33,487.1484 C33,487.1484 33,474 38,474 " fill="#FEFECE" filter="url(#fgxoj5a)" style="stroke: #A80036; stroke-width: 1.5;"/><path d="M112,474 C107,474 107,487.1484 107,487.1484 C107,500.2969 112,500.2969 112,500.2969 " fill="none" style="stroke: #A80036; stroke-width: 1.5;"/><text fill="#000000" font-family="sans-serif" font-size="14" lengthAdjust="spacingAndGlyphs" textLength="64" x="38" y="491.9951">message</text><path d="M131,76.125 C131,96.1821 131,128.5698 131,150.5464 " fill="none" style="stroke: #A80036; stroke-width: 1.0;"/><polygon fill="#A80036" points="131,155.6195,135,146.6195,131,150.6195,127,146.6195,131,155.6195" style="stroke: #A80036; stroke-width: 1.0;"/><path d="M132.1286,192.0569 C133.0945,207.5126 134.4915,229.8647 135.5421,246.6731 " fill="none" style="stroke: #A80036; stroke-width: 1.0;"/><polygon fill="#A80036" points="135.8561,251.6977,139.2867,242.4656,135.5441,246.7074,131.3023,242.9648,135.8561,251.6977" style="stroke: #A80036; stroke-width: 1.0;"/><path d="M128.1169,288.0527 C117.0674,310.5083 98.1955,348.8607 86.175,373.2895 " fill="none" style="stroke: #A80036; stroke-width: 1.0;"/><polygon fill="#A80036" points="83.8666,377.9808,91.4292,371.6716,86.0742,373.4945,84.2512,368.1395,83.8666,377.9808" style="stroke: #A80036; stroke-width: 1.0;"/><path d="M146.0264,288.0527 C157.2541,310.5083 176.4304,348.8607 188.6447,373.2895 " fill="none" style="stroke: #A80036; stroke-width: 1.0;"/><polygon fill="#A80036" points="190.9904,377.9808,190.5431,368.1421,188.7543,373.5087,183.3877,371.7199,190.9904,377.9808" style="stroke: #A80036; stroke-width: 1.0;"/><path d="M299.6104,174.9122 C378.4618,177.0841 524.568,184.4028 570,209 C586.0117,217.6689 598.8794,233.7893 607.5495,247.2817 " fill="none" style="stroke: #A80036; stroke-width: 1.0;"/><polygon fill="#A80036" points="610.3273,251.7421,608.9648,241.9879,607.6841,247.4979,602.1741,246.2171,610.3273,251.7421" style="stroke: #A80036; stroke-width: 1.0;"/><path d="M299.5585,180.5315 C346.1542,187.0045 410.8713,197.5814 434,209 C453.1082,218.4337 470.891,234.7693 483.4757,248.1627 " fill="none" style="stroke: #A80036; stroke-width: 1.0;"/><polygon fill="#A80036" points="486.8841,251.8542,483.7174,242.5283,483.4922,248.1807,477.8398,247.9554,486.8841,251.8542" style="stroke: #A80036; stroke-width: 1.0;"/><path d="M287.0519,192.0563 C296.7752,197.1001 306.99,202.8877 316,209 C333.0457,220.5636 350.5151,235.7813 363.7383,248.1242 " fill="none" style="stroke: #A80036; stroke-width: 1.0;"/><polygon fill="#A80036" points="367.7006,251.8552,363.8905,242.7732,364.0604,248.4275,358.4061,248.5974,367.7006,251.8552" style="stroke: #A80036; stroke-width: 1.0;"/><path d="M75,414.4152 C75,430.2796 75,453.0508 75,468.8404 " fill="none" style="stroke: #A80036; stroke-width: 1.0;"/><polygon fill="#A80036" points="75,473.9074,79,464.9074,75,468.9074,71,464.9074,75,473.9074" style="stroke: #A80036; stroke-width: 1.0;"/></g></svg>