<?xml version="1.0" encoding="UTF-8" standalone="no"?><svg xmlns="http://www.w3.org/2000/svg" xmlns:xlink="http://www.w3.org/1999/xlink" contentScriptType="application/ecmascript" contentStyleType="text/css" height="384px" preserveAspectRatio="none" style="width:540px;height:384px;" version="1.1" viewBox="0 0 540 384" width="540px" zoomAndPan="magnify"><defs><filter height="300%" id="fnrvbrd" width="300%" x="-1" y="-1"><feGaussianBlur result="blurOut" stdDeviation="2.0"/><feColorMatrix in="blurOut" result="blurOut2" type="matrix" values="0 0 0 0 0 0 0 0 0 0 0 0 0 0 0 0 0 0 .4 0"/><feOffset dx="4.0" dy="4.0" in="blurOut2" result="blurOut3"/><feBlend in="SourceGraphic" in2="blurOut3" mode="normal"/></filter></defs><g><!--entity Admin--><ellipse cx="83" cy="34.7969" fill="#FEFECE" filter="url(#fnrvbrd)" rx="8" ry="8" style="stroke: #A80036; stroke-width: 2.0;"/><path d="M83,42.7969 L83,69.7969 M70,50.7969 L96,50.7969 M83,69.7969 L70,84.7969 M83,69.7969 L96,84.7969 " fill="#FEFECE" filter="url(#fnrvbrd)" style="stroke: #A80036; stroke-width: 2.0;"/><text fill="#000000" font-family="sans-serif" font-size="14" lengthAdjust="spacingAndGlyphs" textLength="46" x="60" y="104.792">Admin</text><text fill="#000000" font-family="sans-serif" font-size="14" font-style="italic" lengthAdjust="spacingAndGlyphs" textLength="70" x="48" y="21.4951">«Human»</text><!--entity Foottrial--><ellipse cx="490" cy="135.7969" fill="#FEFECE" filter="url(#fnrvbrd)" rx="8" ry="8" style="stroke: #A80036; stroke-width: 2.0;"/><path d="M490,143.7969 L490,170.7969 M477,151.7969 L503,151.7969 M490,170.7969 L477,185.7969 M490,170.7969 L503,185.7969 " fill="#FEFECE" filter="url(#fnrvbrd)" style="stroke: #A80036; stroke-width: 2.0;"/><text fill="#000000" font-family="sans-serif" font-size="14" lengthAdjust="spacingAndGlyphs" textLength="59" x="460.5" y="205.792">Foottrial</text><text fill="#000000" font-family="sans-serif" font-size="14" font-style="italic" lengthAdjust="spacingAndGlyphs" textLength="98" x="441" y="122.4951">«Application»</text><ellipse cx="300.7133" cy="159.3427" fill="#FEFECE" filter="url(#fnrvbrd)" rx="79.7133" ry="18.3427" style="stroke: #A80036; stroke-width: 1.5;"/><text fill="#000000" font-family="sans-serif" font-size="14" lengthAdjust="spacingAndGlyphs" textLength="130" x="235.7133" y="163.9911">to Register Patient</text><ellipse cx="82.7711" cy="260.2542" fill="#FEFECE" filter="url(#fnrvbrd)" rx="76.7711" ry="17.7542" style="stroke: #A80036; stroke-width: 1.5;"/><text fill="#000000" font-family="sans-serif" font-size="14" lengthAdjust="spacingAndGlyphs" textLength="123" x="21.2711" y="264.9027">Make Notification</text><ellipse cx="82.9975" cy="362.5236" fill="#FEFECE" filter="url(#fnrvbrd)" rx="52.4975" ry="14.5236" style="stroke: #A80036; stroke-width: 1.5;"/><text fill="#000000" font-family="sans-serif" font-size="14" lengthAdjust="spacingAndGlyphs" textLength="70" x="47.9975" y="367.1721">Send SMS</text><ellipse cx="82.7904" cy="158.5236" fill="#FEFECE" filter="url(#fnrvbrd)" rx="51.7904" ry="14.5236" style="stroke: #A80036; stroke-width: 1.5;"/><text fill="#000000" font-family="sans-serif" font-size="14" lengthAdjust="spacingAndGlyphs" textLength="69" x="48.2904" y="163.1721">Done Call</text><path d="M118.4292,74.9522 C157.1791,92.9464 219.1767,121.7361 259.8702,140.6328 " fill="none" style="stroke: #A80036; stroke-width: 1.0;"/><polygon fill="#A80036" points="264.7242,142.8869,258.2462,135.4683,260.1893,140.781,254.8767,142.7241,264.7242,142.8869" style="stroke: #A80036; stroke-width: 1.0;"/><path d="M117.9451,244.2726 C156.6014,226.3219 218.8144,197.4322 259.6808,178.4551 " fill="none" style="stroke: #A80036; stroke-width: 1.0;"/><polygon fill="#A80036" points="264.5557,176.1914,254.7082,176.3543,260.0209,178.2974,258.0778,183.6101,264.5557,176.1914" style="stroke: #A80036; stroke-width: 1.0;"/><path d="M385.3878,159.5 C404.4028,159.5 423.9533,159.5 440.9314,159.5 " fill="none" style="stroke: #A80036; stroke-width: 1.0;"/><polygon fill="#A80036" points="380.0414,159.5,389.0414,163.5,385.0414,159.5,389.0414,155.5,380.0414,159.5" style="stroke: #A80036; stroke-width: 1.0;"/><path d="M83,283.6082 C83,303.3333 83,331.0976 83,347.8859 " fill="none" style="stroke: #A80036; stroke-width: 1.0; stroke-dasharray: 7.0,7.0;"/><polygon fill="#A80036" points="83,278.5264,79,287.5264,83,283.5264,87,287.5264,83,278.5264" style="stroke: #A80036; stroke-width: 1.0;"/><text fill="#000000" font-family="sans-serif" font-size="13" lengthAdjust="spacingAndGlyphs" textLength="52" x="45.5" y="317.8169">extends</text><path d="M83,173.2704 C83,190.0191 83,217.5466 83,237.1981 " fill="none" style="stroke: #A80036; stroke-width: 1.0; stroke-dasharray: 7.0,7.0;"/><polygon fill="#A80036" points="83,242.2644,87,233.2644,83,237.2644,79,233.2644,83,242.2644" style="stroke: #A80036; stroke-width: 1.0;"/><text fill="#000000" font-family="sans-serif" font-size="13" lengthAdjust="spacingAndGlyphs" textLength="52" x="45.5" y="212.3169">extends</text></g></svg>